<?xml version="1.0" encoding="utf-8"?>
<!-- Generator: Adobe Illustrator 24.3.0, SVG Export Plug-In . SVG Version: 6.00 Build 0)  -->
<svg version="1.1" id="Layer_1" xmlns="http://www.w3.org/2000/svg" xmlns:xlink="http://www.w3.org/1999/xlink" x="0px" y="0px"
	 viewBox="0 0 16.9 17.4" style="enable-background:new 0 0 16.9 17.4;" xml:space="preserve">
<style type="text/css">
	.st0{fill:url(#SVGID_1_);}
	.st1{fill:url(#SVGID_2_);}
	.st2{fill:url(#SVGID_3_);}
	.st3{fill:url(#SVGID_4_);}
	.st4{clip-path:url(#SVGID_6_);}
	.st5{fill:#ED6524;}
	.st6{fill:#A7A9AC;}
	.st7{fill:#D1D3D4;}
	.st8{fill:#FFFFFF;}
	.st9{fill:url(#SVGID_9_);}
	.st10{fill:url(#SVGID_10_);}
	.st11{fill:url(#SVGID_11_);}
	.st12{fill:none;stroke:#ED6524;stroke-miterlimit:10;}
	.st13{fill:#FF7F30;}
	.st14{fill:#898A8D;}
	.st15{fill:#E6427A;}
	.st16{fill:#0CACA8;}
	.st17{fill:none;}
	.st18{fill:#231F20;}
	.st19{fill:#ED1C24;}
	.st20{fill-rule:evenodd;clip-rule:evenodd;fill:#00AEEF;}
	.st21{fill-rule:evenodd;clip-rule:evenodd;}
	.st22{fill-rule:evenodd;clip-rule:evenodd;fill:#FFF200;}
	.st23{fill-rule:evenodd;clip-rule:evenodd;fill:#EC008C;}
	.st24{fill-rule:evenodd;clip-rule:evenodd;fill:#231F20;}
	.st25{fill-rule:evenodd;clip-rule:evenodd;fill:#CE0E2D;}
	.st26{fill:#0057A8;}
	.st27{fill:#808285;}
	.st28{fill:url(#SVGID_12_);}
	.st29{fill:url(#SVGID_13_);}
	.st30{fill:url(#SVGID_14_);}
	.st31{fill:url(#SVGID_15_);}
	.st32{fill:#00AEEF;}
	.st33{fill:#FFF200;}
	.st34{fill:#EC008C;}
	.st35{fill:url(#SVGID_16_);}
	.st36{fill:url(#SVGID_17_);}
	.st37{fill:url(#SVGID_18_);}
	.st38{fill:url(#SVGID_19_);}
	.st39{fill-rule:evenodd;clip-rule:evenodd;fill:#176DB0;}
	.st40{fill-rule:evenodd;clip-rule:evenodd;fill:#C35557;}
	.st41{fill:#176DB0;}
	.st42{clip-path:url(#SVGID_21_);fill:#2170B4;}
	.st43{clip-path:url(#SVGID_21_);fill:none;stroke:#FFFFFF;stroke-width:0.3344;stroke-miterlimit:10;}
	.st44{clip-path:url(#SVGID_21_);fill:#FFFFFF;}
	.st45{clip-path:url(#SVGID_21_);fill:none;stroke:#FFFFFF;stroke-width:4.799914e-02;stroke-miterlimit:3.864;}
	.st46{fill:url(#SVGID_22_);}
	.st47{fill:url(#SVGID_23_);}
	.st48{fill-rule:evenodd;clip-rule:evenodd;fill:url(#SVGID_24_);}
	.st49{fill-rule:evenodd;clip-rule:evenodd;fill:#ED1C24;}
	.st50{clip-path:url(#SVGID_26_);fill:#F15629;}
	.st51{clip-path:url(#SVGID_26_);fill:#FFFFFF;}
	.st52{clip-path:url(#SVGID_28_);fill:url(#SVGID_29_);}
	.st53{fill:#6D6E71;}
	.st54{clip-path:url(#SVGID_31_);}
	.st55{clip-path:url(#SVGID_33_);fill:#E6E7E8;}
	.st56{fill:#CD036F;}
	.st57{fill:#014999;}
	.st58{fill-rule:evenodd;clip-rule:evenodd;fill:#DA2128;}
	.st59{fill:#0077B7;}
</style>
<g>
	<defs>
		<rect id="SVGID_5_" x="-180.3" y="-105.2" width="208.7" height="208.7"/>
	</defs>
	<clipPath id="SVGID_1_">
		<use xlink:href="#SVGID_5_"  style="overflow:visible;"/>
	</clipPath>
</g>
<g>
	<g>
		<defs>
			<circle id="SVGID_7_" cx="-73.7" cy="-8.1" r="50.1"/>
		</defs>
		<clipPath id="SVGID_2_">
			<use xlink:href="#SVGID_7_"  style="overflow:visible;"/>
		</clipPath>
		<g style="clip-path:url(#SVGID_2_);">
			
				<image style="overflow:visible;" width="1125" height="675" xlink:href="../../002 Business Card/BG.png"  transform="matrix(0.1908 0 0 0.1908 -163.1373 -72.4409)">
			</image>
		</g>
	</g>
</g>
<g>
	<g>
		<g>
			<circle class="st5" cx="8.4" cy="8.7" r="7.9"/>
		</g>
	</g>
	<g>
		<path class="st8" d="M3.6,5.1c0.3,0.2,0.6,0.4,0.8,0.5c1.3,0.8,2.7,1.7,4,2.5c0,0,0,0,0.1,0c1-0.7,2.1-1.3,3.1-2
			c0.5-0.3,1.1-0.7,1.6-1c0,0,0,0,0,0c0.1,0.1,0.2,0.2,0.3,0.3c0.1,0.2,0.2,0.4,0.2,0.7c0,1.8,0,3.5,0,5.3c0,0.1,0,0.2,0,0.3
			c-0.1,0.5-0.5,0.9-1,1c-0.1,0-0.2,0-0.2,0c-2.7,0-5.4,0-8.1,0c-0.6,0-1.1-0.4-1.2-1c0-0.1,0-0.2,0-0.3c0-1.8,0-3.5,0-5.3
			C3.1,5.7,3.3,5.4,3.6,5.1z M4.1,11.9c2.7,0,6,0,8.8,0c0-1.6,0-4,0-5.6c0,0-3.1,2-4.4,2.8c0,0,0,0-0.1,0C7.1,8.3,4.1,6.4,4.1,6.4
			C4.1,7.9,4.1,10.3,4.1,11.9z"/>
		<path class="st8" d="M12.9,4.9C12.7,5,12.6,5,12.5,5.1c-0.3,0.2-0.5,0.3-0.8,0.5c0,0-0.1,0-0.1,0c-2.1,0-4.3,0-6.4,0
			c0,0-0.1,0-0.1,0C4.8,5.4,4.4,5.2,4,4.9c0,0,0,0,0,0c0,0,0,0,0,0c0.1,0,0.2,0,0.3,0c0,0,0.1,0,0.1,0c2.7,0,5.4,0,8.1,0
			C12.6,4.8,12.7,4.8,12.9,4.9z"/>
	</g>
</g>
</svg>
