<?xml version="1.0" encoding="utf-8"?>
<!-- Generator: Adobe Illustrator 24.3.0, SVG Export Plug-In . SVG Version: 6.00 Build 0)  -->
<svg version="1.1" id="Layer_1" xmlns="http://www.w3.org/2000/svg" xmlns:xlink="http://www.w3.org/1999/xlink" x="0px" y="0px"
	 viewBox="0 0 16.9 17.4" style="enable-background:new 0 0 16.9 17.4;" xml:space="preserve">
<style type="text/css">
	.st0{fill:url(#SVGID_1_);}
	.st1{fill:url(#SVGID_2_);}
	.st2{fill:url(#SVGID_3_);}
	.st3{fill:url(#SVGID_4_);}
	.st4{clip-path:url(#SVGID_6_);}
	.st5{fill:#ED6524;}
	.st6{fill:#A7A9AC;}
	.st7{fill:#D1D3D4;}
	.st8{fill:#FFFFFF;}
	.st9{fill:url(#SVGID_9_);}
	.st10{fill:url(#SVGID_10_);}
	.st11{fill:url(#SVGID_11_);}
	.st12{fill:none;stroke:#ED6524;stroke-miterlimit:10;}
	.st13{fill:#FF7F30;}
	.st14{fill:#898A8D;}
	.st15{fill:#E6427A;}
	.st16{fill:#0CACA8;}
	.st17{fill:none;}
	.st18{fill:#231F20;}
	.st19{fill:#ED1C24;}
	.st20{fill-rule:evenodd;clip-rule:evenodd;fill:#00AEEF;}
	.st21{fill-rule:evenodd;clip-rule:evenodd;}
	.st22{fill-rule:evenodd;clip-rule:evenodd;fill:#FFF200;}
	.st23{fill-rule:evenodd;clip-rule:evenodd;fill:#EC008C;}
	.st24{fill-rule:evenodd;clip-rule:evenodd;fill:#231F20;}
	.st25{fill-rule:evenodd;clip-rule:evenodd;fill:#CE0E2D;}
	.st26{fill:#0057A8;}
	.st27{fill:#808285;}
	.st28{fill:url(#SVGID_12_);}
	.st29{fill:url(#SVGID_13_);}
	.st30{fill:url(#SVGID_14_);}
	.st31{fill:url(#SVGID_15_);}
	.st32{fill:#00AEEF;}
	.st33{fill:#FFF200;}
	.st34{fill:#EC008C;}
	.st35{fill:url(#SVGID_16_);}
	.st36{fill:url(#SVGID_17_);}
	.st37{fill:url(#SVGID_18_);}
	.st38{fill:url(#SVGID_19_);}
	.st39{fill-rule:evenodd;clip-rule:evenodd;fill:#176DB0;}
	.st40{fill-rule:evenodd;clip-rule:evenodd;fill:#C35557;}
	.st41{fill:#176DB0;}
	.st42{clip-path:url(#SVGID_21_);fill:#2170B4;}
	.st43{clip-path:url(#SVGID_21_);fill:none;stroke:#FFFFFF;stroke-width:0.3344;stroke-miterlimit:10;}
	.st44{clip-path:url(#SVGID_21_);fill:#FFFFFF;}
	.st45{clip-path:url(#SVGID_21_);fill:none;stroke:#FFFFFF;stroke-width:4.799914e-02;stroke-miterlimit:3.864;}
	.st46{fill:url(#SVGID_22_);}
	.st47{fill:url(#SVGID_23_);}
	.st48{fill-rule:evenodd;clip-rule:evenodd;fill:url(#SVGID_24_);}
	.st49{fill-rule:evenodd;clip-rule:evenodd;fill:#ED1C24;}
	.st50{clip-path:url(#SVGID_26_);fill:#F15629;}
	.st51{clip-path:url(#SVGID_26_);fill:#FFFFFF;}
	.st52{clip-path:url(#SVGID_28_);fill:url(#SVGID_29_);}
	.st53{fill:#6D6E71;}
	.st54{clip-path:url(#SVGID_31_);}
	.st55{clip-path:url(#SVGID_33_);fill:#E6E7E8;}
	.st56{fill:#CD036F;}
	.st57{fill:#014999;}
	.st58{fill-rule:evenodd;clip-rule:evenodd;fill:#DA2128;}
	.st59{fill:#0077B7;}
</style>
<g>
	<defs>
		<rect id="SVGID_5_" x="-180.3" y="-105.2" width="208.7" height="208.7"/>
	</defs>
	<clipPath id="SVGID_1_">
		<use xlink:href="#SVGID_5_"  style="overflow:visible;"/>
	</clipPath>
</g>
<g>
	<g>
		<defs>
			<circle id="SVGID_7_" cx="-73.7" cy="-8.1" r="50.1"/>
		</defs>
		<clipPath id="SVGID_2_">
			<use xlink:href="#SVGID_7_"  style="overflow:visible;"/>
		</clipPath>
		<g style="clip-path:url(#SVGID_2_);">
			
				<image style="overflow:visible;" width="1125" height="675" xlink:href="../../002 Business Card/BG.png"  transform="matrix(0.1908 0 0 0.1908 -163.1373 -72.4409)">
			</image>
		</g>
	</g>
</g>
<g>
	<g>
		<circle class="st5" cx="8.4" cy="8.7" r="7.9"/>
	</g>
	<path class="st8" d="M8.5,9.7H8.1c-0.1,0-0.2,0-0.2,0.1C7.9,9.8,7.8,9.9,7.8,10c0,0.2,0.1,0.3,0.3,0.3h0.3c0.1,0,0.2,0,0.2-0.1
		c0.1-0.1,0.1-0.1,0.1-0.2C8.8,9.8,8.6,9.7,8.5,9.7z M8.5,9.7H8.1c-0.1,0-0.2,0-0.2,0.1C7.9,9.8,7.8,9.9,7.8,10
		c0,0.2,0.1,0.3,0.3,0.3h0.3c0.1,0,0.2,0,0.2-0.1c0.1-0.1,0.1-0.1,0.1-0.2C8.8,9.8,8.6,9.7,8.5,9.7z M8.5,9.7H8.1
		c-0.1,0-0.2,0-0.2,0.1C7.9,9.8,7.8,9.9,7.8,10c0,0.2,0.1,0.3,0.3,0.3h0.3c0.1,0,0.2,0,0.2-0.1c0.1-0.1,0.1-0.1,0.1-0.2
		C8.8,9.8,8.6,9.7,8.5,9.7z M8.5,9.7H8.1c-0.1,0-0.2,0-0.2,0.1C7.9,9.8,7.8,9.9,7.8,10c0,0.2,0.1,0.3,0.3,0.3h0.3
		c0.1,0,0.2,0,0.2-0.1c0.1-0.1,0.1-0.1,0.1-0.2C8.8,9.8,8.6,9.7,8.5,9.7z M8.5,9.7H8.1c-0.1,0-0.2,0-0.2,0.1C7.9,9.8,7.8,9.9,7.8,10
		c0,0.2,0.1,0.3,0.3,0.3h0.3c0.1,0,0.2,0,0.2-0.1c0.1-0.1,0.1-0.1,0.1-0.2C8.8,9.8,8.6,9.7,8.5,9.7z M8.5,9.7H8.1
		c-0.1,0-0.2,0-0.2,0.1C7.9,9.8,7.8,9.9,7.8,10c0,0.2,0.1,0.3,0.3,0.3h0.3c0.1,0,0.2,0,0.2-0.1c0.1-0.1,0.1-0.1,0.1-0.2
		C8.8,9.8,8.6,9.7,8.5,9.7z M8.5,9.7H8.1c-0.1,0-0.2,0-0.2,0.1C7.9,9.8,7.8,9.9,7.8,10c0,0.2,0.1,0.3,0.3,0.3h0.3
		c0.1,0,0.2,0,0.2-0.1c0.1-0.1,0.1-0.1,0.1-0.2C8.8,9.8,8.6,9.7,8.5,9.7z M8.5,9.7H8.1c-0.1,0-0.2,0-0.2,0.1C7.9,9.8,7.8,9.9,7.8,10
		c0,0.2,0.1,0.3,0.3,0.3h0.3c0.1,0,0.2,0,0.2-0.1c0.1-0.1,0.1-0.1,0.1-0.2C8.8,9.8,8.6,9.7,8.5,9.7z M8.5,9.7H8.1
		c-0.1,0-0.2,0-0.2,0.1C7.9,9.8,7.8,9.9,7.8,10c0,0.2,0.1,0.3,0.3,0.3h0.3c0.1,0,0.2,0,0.2-0.1c0.1-0.1,0.1-0.1,0.1-0.2
		C8.8,9.8,8.6,9.7,8.5,9.7z M8.5,9.7H8.1c-0.1,0-0.2,0-0.2,0.1C7.9,9.8,7.8,9.9,7.8,10c0,0.2,0.1,0.3,0.3,0.3h0.3
		c0.1,0,0.2,0,0.2-0.1c0.1-0.1,0.1-0.1,0.1-0.2C8.8,9.8,8.6,9.7,8.5,9.7z M8.5,9.7H8.1c-0.1,0-0.2,0-0.2,0.1C7.9,9.8,7.8,9.9,7.8,10
		c0,0.2,0.1,0.3,0.3,0.3h0.3c0.1,0,0.2,0,0.2-0.1c0.1-0.1,0.1-0.1,0.1-0.2C8.8,9.8,8.6,9.7,8.5,9.7z M8.5,9.7H8.1
		c-0.1,0-0.2,0-0.2,0.1C7.9,9.8,7.8,9.9,7.8,10c0,0.2,0.1,0.3,0.3,0.3h0.3c0.1,0,0.2,0,0.2-0.1c0.1-0.1,0.1-0.1,0.1-0.2
		C8.8,9.8,8.6,9.7,8.5,9.7z M9.5,3.6H7.1c-0.7,0-1.3,0.5-1.3,1.2v7.9c0,0.7,0.6,1.2,1.3,1.2h2.3c0.7,0,1.3-0.5,1.3-1.2V4.8
		C10.8,4.2,10.2,3.6,9.5,3.6z M7.9,3.9C7.9,3.9,8,3.9,7.9,3.9l0.7,0C8.7,3.9,8.7,4,8.7,4c0,0,0,0.1,0,0.1c0,0-0.1,0-0.1,0H8
		C7.9,4.2,7.9,4.1,7.9,3.9C7.9,4,7.9,4,7.9,3.9z M6.5,4.5h3.7v4.4H6.5V4.5z M6.2,9.9c0-0.1,0-0.2,0.1-0.3c0.1-0.1,0.2-0.1,0.3-0.1
		h0.2c0.2,0,0.4,0.2,0.4,0.4c0,0.1,0,0.2-0.1,0.3c-0.1,0.1-0.2,0.1-0.3,0.1H6.6C6.3,10.3,6.2,10.1,6.2,9.9z M7.5,12.7
		c0,0-0.1,0.1-0.2,0.1H6.9c-0.1,0-0.2-0.1-0.2-0.2c0-0.1,0-0.1,0.1-0.1c0,0,0.1-0.1,0.2-0.1h0.5c0.1,0,0.2,0.1,0.2,0.2
		C7.6,12.6,7.5,12.7,7.5,12.7z M7.5,12c0,0-0.1,0.1-0.2,0.1H6.9c-0.1,0-0.2-0.1-0.2-0.2c0-0.1,0-0.1,0.1-0.1c0,0,0.1-0.1,0.2-0.1
		h0.5c0.1,0,0.2,0.1,0.2,0.2C7.6,11.9,7.5,12,7.5,12z M7.5,11.3c0,0-0.1,0.1-0.2,0.1H6.9c-0.1,0-0.2-0.1-0.2-0.2
		c0-0.1,0-0.1,0.1-0.1c0,0,0.1-0.1,0.2-0.1h0.5c0.1,0,0.2,0.1,0.2,0.2C7.6,11.2,7.5,11.2,7.5,11.3z M8.7,13.4c0,0-0.1,0.1-0.2,0.1
		H8.1c-0.1,0-0.2-0.1-0.2-0.2c0-0.1,0-0.1,0.1-0.1C8,13.1,8,13,8.1,13h0.5c0.1,0,0.2,0.1,0.2,0.2C8.8,13.3,8.8,13.4,8.7,13.4z
		 M8.7,12.7c0,0-0.1,0.1-0.2,0.1H8.1c-0.1,0-0.2-0.1-0.2-0.2c0-0.1,0-0.1,0.1-0.1c0,0,0.1-0.1,0.2-0.1h0.5c0.1,0,0.2,0.1,0.2,0.2
		C8.8,12.6,8.8,12.7,8.7,12.7z M8.7,12c0,0-0.1,0.1-0.2,0.1H8.1c-0.1,0-0.2-0.1-0.2-0.2c0-0.1,0-0.1,0.1-0.1c0,0,0.1-0.1,0.2-0.1
		h0.5c0.1,0,0.2,0.1,0.2,0.2C8.8,11.9,8.8,12,8.7,12z M8.7,11.3c0,0-0.1,0.1-0.2,0.1H8.1c-0.1,0-0.2-0.1-0.2-0.2
		c0-0.1,0-0.1,0.1-0.1c0,0,0.1-0.1,0.2-0.1h0.5c0.1,0,0.2,0.1,0.2,0.2C8.8,11.2,8.8,11.2,8.7,11.3z M8.4,10.7H8.2
		c-0.4,0-0.8-0.3-0.8-0.7c0-0.2,0.1-0.4,0.2-0.5C7.8,9.3,8,9.3,8.2,9.3h0.3c0.4,0,0.8,0.3,0.8,0.7c0,0.2-0.1,0.4-0.2,0.5
		C8.9,10.6,8.7,10.7,8.4,10.7z M9.9,12.7c0,0-0.1,0.1-0.2,0.1H9.3c-0.1,0-0.2-0.1-0.2-0.2c0-0.1,0-0.1,0.1-0.1c0,0,0.1-0.1,0.2-0.1
		h0.5c0.1,0,0.2,0.1,0.2,0.2C10,12.6,10,12.7,9.9,12.7z M9.9,12c0,0-0.1,0.1-0.2,0.1H9.3c-0.1,0-0.2-0.1-0.2-0.2
		c0-0.1,0-0.1,0.1-0.1c0,0,0.1-0.1,0.2-0.1h0.5c0.1,0,0.2,0.1,0.2,0.2C10,11.9,10,12,9.9,12z M9.9,11.3c0,0-0.1,0.1-0.2,0.1H9.3
		c-0.1,0-0.2-0.1-0.2-0.2c0-0.1,0-0.1,0.1-0.1c0,0,0.1-0.1,0.2-0.1h0.5c0.1,0,0.2,0.1,0.2,0.2C10,11.2,10,11.2,9.9,11.3z M10.3,10.2
		c-0.1,0.1-0.2,0.1-0.3,0.1H9.9c-0.2,0-0.4-0.2-0.4-0.4c0-0.1,0-0.2,0.1-0.3c0.1-0.1,0.2-0.1,0.3-0.1h0.2c0.2,0,0.4,0.2,0.4,0.4
		C10.5,10,10.4,10.1,10.3,10.2z M8.5,9.7H8.1c-0.1,0-0.2,0-0.2,0.1C7.9,9.8,7.8,9.9,7.8,10c0,0.2,0.1,0.3,0.3,0.3h0.3
		c0.1,0,0.2,0,0.2-0.1c0.1-0.1,0.1-0.1,0.1-0.2C8.8,9.8,8.6,9.7,8.5,9.7z M8.5,9.7H8.1c-0.1,0-0.2,0-0.2,0.1C7.9,9.8,7.8,9.9,7.8,10
		c0,0.2,0.1,0.3,0.3,0.3h0.3c0.1,0,0.2,0,0.2-0.1c0.1-0.1,0.1-0.1,0.1-0.2C8.8,9.8,8.6,9.7,8.5,9.7z M8.5,9.7H8.1
		c-0.1,0-0.2,0-0.2,0.1C7.9,9.8,7.8,9.9,7.8,10c0,0.2,0.1,0.3,0.3,0.3h0.3c0.1,0,0.2,0,0.2-0.1c0.1-0.1,0.1-0.1,0.1-0.2
		C8.8,9.8,8.6,9.7,8.5,9.7z M8.5,9.7H8.1c-0.1,0-0.2,0-0.2,0.1C7.9,9.8,7.8,9.9,7.8,10c0,0.2,0.1,0.3,0.3,0.3h0.3
		c0.1,0,0.2,0,0.2-0.1c0.1-0.1,0.1-0.1,0.1-0.2C8.8,9.8,8.6,9.7,8.5,9.7z M8.5,9.7H8.1c-0.1,0-0.2,0-0.2,0.1C7.9,9.8,7.8,9.9,7.8,10
		c0,0.2,0.1,0.3,0.3,0.3h0.3c0.1,0,0.2,0,0.2-0.1c0.1-0.1,0.1-0.1,0.1-0.2C8.8,9.8,8.6,9.7,8.5,9.7z M8.5,9.7H8.1
		c-0.1,0-0.2,0-0.2,0.1C7.9,9.8,7.8,9.9,7.8,10c0,0.2,0.1,0.3,0.3,0.3h0.3c0.1,0,0.2,0,0.2-0.1c0.1-0.1,0.1-0.1,0.1-0.2
		C8.8,9.8,8.6,9.7,8.5,9.7z M8.5,9.7H8.1c-0.1,0-0.2,0-0.2,0.1C7.9,9.8,7.8,9.9,7.8,10c0,0.2,0.1,0.3,0.3,0.3h0.3
		c0.1,0,0.2,0,0.2-0.1c0.1-0.1,0.1-0.1,0.1-0.2C8.8,9.8,8.6,9.7,8.5,9.7z M8.5,9.7H8.1c-0.1,0-0.2,0-0.2,0.1C7.9,9.8,7.8,9.9,7.8,10
		c0,0.2,0.1,0.3,0.3,0.3h0.3c0.1,0,0.2,0,0.2-0.1c0.1-0.1,0.1-0.1,0.1-0.2C8.8,9.8,8.6,9.7,8.5,9.7z M8.5,9.7H8.1
		c-0.1,0-0.2,0-0.2,0.1C7.9,9.8,7.8,9.9,7.8,10c0,0.2,0.1,0.3,0.3,0.3h0.3c0.1,0,0.2,0,0.2-0.1c0.1-0.1,0.1-0.1,0.1-0.2
		C8.8,9.8,8.6,9.7,8.5,9.7z M8.5,9.7H8.1c-0.1,0-0.2,0-0.2,0.1C7.9,9.8,7.8,9.9,7.8,10c0,0.2,0.1,0.3,0.3,0.3h0.3
		c0.1,0,0.2,0,0.2-0.1c0.1-0.1,0.1-0.1,0.1-0.2C8.8,9.8,8.6,9.7,8.5,9.7z M8.5,9.7H8.1c-0.1,0-0.2,0-0.2,0.1C7.9,9.8,7.8,9.9,7.8,10
		c0,0.2,0.1,0.3,0.3,0.3h0.3c0.1,0,0.2,0,0.2-0.1c0.1-0.1,0.1-0.1,0.1-0.2C8.8,9.8,8.6,9.7,8.5,9.7z M8.5,9.7H8.1
		c-0.1,0-0.2,0-0.2,0.1C7.9,9.8,7.8,9.9,7.8,10c0,0.2,0.1,0.3,0.3,0.3h0.3c0.1,0,0.2,0,0.2-0.1c0.1-0.1,0.1-0.1,0.1-0.2
		C8.8,9.8,8.6,9.7,8.5,9.7z M8.5,9.7H8.1c-0.1,0-0.2,0-0.2,0.1C7.9,9.8,7.8,9.9,7.8,10c0,0.2,0.1,0.3,0.3,0.3h0.3
		c0.1,0,0.2,0,0.2-0.1c0.1-0.1,0.1-0.1,0.1-0.2C8.8,9.8,8.6,9.7,8.5,9.7z"/>
</g>
</svg>
