<?xml version="1.0" encoding="utf-8"?>
<!-- Generator: Adobe Illustrator 24.3.0, SVG Export Plug-In . SVG Version: 6.00 Build 0)  -->
<svg version="1.1" id="Layer_1" xmlns="http://www.w3.org/2000/svg" xmlns:xlink="http://www.w3.org/1999/xlink" x="0px" y="0px"
	 viewBox="0 0 16.9 17.4" style="enable-background:new 0 0 16.9 17.4;" xml:space="preserve">
<style type="text/css">
	.st0{fill:#FFFFFF;}
	.st1{fill:url(#SVGID_1_);}
	.st2{fill:url(#SVGID_2_);}
	.st3{fill:url(#SVGID_3_);}
	.st4{fill:url(#SVGID_4_);}
	.st5{clip-path:url(#SVGID_6_);}
	.st6{fill:#ED6524;}
	.st7{fill:#A7A9AC;}
	.st8{fill:#D1D3D4;}
	.st9{fill:url(#SVGID_9_);}
	.st10{fill:url(#SVGID_10_);}
	.st11{fill:url(#SVGID_11_);}
	.st12{fill:none;stroke:#ED6524;stroke-miterlimit:10;}
	.st13{fill:#FF7F30;}
	.st14{fill:#898A8D;}
	.st15{fill:#E6427A;}
	.st16{fill:#0CACA8;}
	.st17{fill:none;}
	.st18{fill:#231F20;}
	.st19{fill:#ED1C24;}
	.st20{fill-rule:evenodd;clip-rule:evenodd;fill:#00AEEF;}
	.st21{fill-rule:evenodd;clip-rule:evenodd;}
	.st22{fill-rule:evenodd;clip-rule:evenodd;fill:#FFF200;}
	.st23{fill-rule:evenodd;clip-rule:evenodd;fill:#EC008C;}
	.st24{fill-rule:evenodd;clip-rule:evenodd;fill:#231F20;}
	.st25{fill-rule:evenodd;clip-rule:evenodd;fill:#CE0E2D;}
	.st26{fill:#0057A8;}
	.st27{fill:#808285;}
	.st28{fill:url(#SVGID_12_);}
	.st29{fill:url(#SVGID_13_);}
	.st30{fill:url(#SVGID_14_);}
	.st31{fill:url(#SVGID_15_);}
	.st32{fill:#00AEEF;}
	.st33{fill:#FFF200;}
	.st34{fill:#EC008C;}
	.st35{fill:url(#SVGID_16_);}
	.st36{fill:url(#SVGID_17_);}
	.st37{fill:url(#SVGID_18_);}
	.st38{fill:url(#SVGID_19_);}
	.st39{fill-rule:evenodd;clip-rule:evenodd;fill:#176DB0;}
	.st40{fill-rule:evenodd;clip-rule:evenodd;fill:#C35557;}
	.st41{fill:#176DB0;}
	.st42{clip-path:url(#SVGID_21_);fill:#2170B4;}
	.st43{clip-path:url(#SVGID_21_);fill:none;stroke:#FFFFFF;stroke-width:0.3344;stroke-miterlimit:10;}
	.st44{clip-path:url(#SVGID_21_);fill:#FFFFFF;}
	.st45{clip-path:url(#SVGID_21_);fill:none;stroke:#FFFFFF;stroke-width:4.799914e-02;stroke-miterlimit:3.864;}
	.st46{fill:url(#SVGID_22_);}
	.st47{fill:url(#SVGID_23_);}
	.st48{fill-rule:evenodd;clip-rule:evenodd;fill:url(#SVGID_24_);}
	.st49{fill-rule:evenodd;clip-rule:evenodd;fill:#ED1C24;}
	.st50{clip-path:url(#SVGID_26_);fill:#F15629;}
	.st51{clip-path:url(#SVGID_26_);fill:#FFFFFF;}
	.st52{clip-path:url(#SVGID_28_);fill:url(#SVGID_29_);}
	.st53{fill:#6D6E71;}
	.st54{clip-path:url(#SVGID_31_);}
	.st55{clip-path:url(#SVGID_33_);fill:#E6E7E8;}
	.st56{fill:#CD036F;}
	.st57{fill:#014999;}
	.st58{fill-rule:evenodd;clip-rule:evenodd;fill:#DA2128;}
	.st59{fill:#0077B7;}
</style>
<symbol  id="Go_to_Web" viewBox="-32 -33.9 64 67.8">
	<polygon class="st0" points="5.4,3.7 5.4,-30.4 14.2,-21.6 20.6,-33.9 25.2,-31.5 19.1,-19.7 30.9,-19.7 	"/>
	<path class="st0" d="M31.5-3.6c0.1,0.3,0.1,0.6,0.2,1c0,0.2,0,0.4,0.1,0.5c0,0.3,0.1,0.6,0.1,0.9c0,0.2,0,0.5,0.1,0.7
		c0,0.3,0,0.5,0.1,0.8c0,0.5,0,1,0,1.6c0,0.5,0,1,0,1.5c0,0.3,0,0.6-0.1,0.9c0,0.2,0,0.3,0,0.5c0,0.4-0.1,0.8-0.1,1.2
		c0,0.1,0,0.1,0,0.2c-0.1,0.4-0.1,0.8-0.2,1.3c0,0,0,0.1,0,0.1c0,0,0,0,0,0C29,21.6,17.3,32.5,2.9,33.8c0,0,0,0-0.1,0
		c-0.4,0-0.9,0.1-1.3,0.1c-0.5,0-1,0-1.5,0s-1,0-1.5,0c-0.4,0-0.9-0.1-1.3-0.1c0,0,0,0-0.1,0C-17.3,32.5-29,21.6-31.5,7.6
		c0,0,0,0,0,0c0,0,0-0.1,0-0.1c-0.1-0.4-0.1-0.8-0.2-1.3c0-0.1,0-0.1,0-0.2c-0.1-0.4-0.1-0.8-0.1-1.2c0-0.2,0-0.3,0-0.5
		c0-0.3-0.1-0.6-0.1-0.9c0-0.5,0-1,0-1.5c0-0.5,0-1,0-1.5c0-0.3,0-0.7,0.1-1c0-0.1,0-0.3,0-0.4c0-0.4,0.1-0.8,0.1-1.2
		c0,0,0-0.1,0-0.1c0.1-0.4,0.1-0.9,0.2-1.3c0,0,0,0,0,0h0c2.4-13.1,12.7-23.4,25.8-25.8c0,0,0,0,0,0c0.1,0,0.2,0,0.3,0
		c0.3-0.1,0.6-0.1,0.9-0.1c0.2,0,0.4-0.1,0.6-0.1c0.3,0,0.6-0.1,0.8-0.1c0.3,0,0.6,0,0.8-0.1c0.2,0,0.4,0,0.7,0c0.5,0,1,0,1.5,0
		c0,0,0.1,0,0.1,0v0.3v7.2c0,0-0.1,0-0.1,0c-1.4,0-2.8,0.1-4.2,0.4c-1.1,3.2-2,7.5-2.6,12.7C-4.6-9.7-2.3-9.8,0-9.8c0,0,0.1,0,0.1,0
		v4.3c0,0-0.1,0-0.1,0c-2.6,0-5,0.1-7.2,0.2c-0.2,2.2-0.2,4.6-0.2,7.2c0,2.6,0.1,5,0.2,7.2C-5,9.2-2.6,9.3,0,9.3
		c2.5,0,4.9-0.1,7.2-0.2c0-0.1,0-0.3,0-0.4C7.9,8.5,8.5,8.1,9,7.6l2.6-2.4c0,1.2-0.1,2.3-0.2,3.5c5.2-0.6,9.5-1.6,12.7-2.6
		c0.2-1.4,0.4-2.8,0.4-4.2c0-1.4-0.1-2.8-0.4-4.2c-1-0.3-2.1-0.6-3.3-0.9l2.5-2.3c0,0,0,0,0,0l5.9-5.4c1,2.3,1.7,4.7,2.2,7.2
		c0,0,0,0,0,0C31.5-3.7,31.5-3.7,31.5-3.6z M-9.1,24.7c-0.9-3.4-1.6-7.4-2.1-11.7c-4.3-0.5-8.3-1.2-11.7-2.1
		C-20.3,17.2-15.3,22.2-9.1,24.7z M-9.1-20.9c-6.3,2.5-11.3,7.5-13.8,13.8c3.4-0.9,7.4-1.6,11.7-2.1C-10.7-13.5-10-17.5-9.1-20.9z
		 M-11.5-4.9c-5.2,0.6-9.5,1.6-12.7,2.6c-0.2,1.4-0.4,2.8-0.4,4.2c0,1.4,0.1,2.8,0.4,4.2c3.2,1.1,7.5,2,12.7,2.6
		c-0.1-2.2-0.2-4.5-0.2-6.8C-11.7-0.4-11.6-2.7-11.5-4.9z M0,13.6c-2.3,0-4.6-0.1-6.8-0.2c0.6,5.2,1.6,9.5,2.6,12.7
		c1.4,0.2,2.8,0.4,4.2,0.4c1.4,0,2.8-0.1,4.2-0.4c1.1-3.2,2-7.5,2.6-12.7C4.6,13.5,2.3,13.6,0,13.6z M11.1,13
		C10.7,17.3,10,21.3,9,24.7c6.3-2.5,11.3-7.5,13.8-13.8C19.4,11.9,15.4,12.6,11.1,13z"/>
</symbol>
<g>
	<defs>
		<rect id="SVGID_5_" x="-180.3" y="-105.2" width="208.7" height="208.7"/>
	</defs>
	<clipPath id="SVGID_1_">
		<use xlink:href="#SVGID_5_"  style="overflow:visible;"/>
	</clipPath>
</g>
<g>
	<g>
		<defs>
			<circle id="SVGID_7_" cx="-73.7" cy="-8.1" r="50.1"/>
		</defs>
		<clipPath id="SVGID_2_">
			<use xlink:href="#SVGID_7_"  style="overflow:visible;"/>
		</clipPath>
		<g style="clip-path:url(#SVGID_2_);">
			
				<image style="overflow:visible;" width="1125" height="675" xlink:href="../../002 Business Card/BG.png"  transform="matrix(0.1908 0 0 0.1908 -163.1373 -72.4409)">
			</image>
		</g>
	</g>
</g>
<g>
	<g>
		<g>
			<circle class="st6" cx="8.4" cy="8.7" r="7.9"/>
		</g>
	</g>
	
		<use xlink:href="#Go_to_Web"  width="64" height="67.8" id="XMLID_1_" x="-32" y="-33.9" transform="matrix(0.1403 0 0 -0.1403 8.4255 8.7021)" style="overflow:visible;"/>
</g>
</svg>
