<?xml version="1.0" encoding="utf-8"?>
<!-- Generator: Adobe Illustrator 24.3.0, SVG Export Plug-In . SVG Version: 6.00 Build 0)  -->
<svg version="1.1" id="Layer_1" xmlns="http://www.w3.org/2000/svg" xmlns:xlink="http://www.w3.org/1999/xlink" x="0px" y="0px"
	 viewBox="0 0 24.1 23.4" style="enable-background:new 0 0 24.1 23.4;" xml:space="preserve">
<style type="text/css">
	.st0{fill:url(#SVGID_1_);}
	.st1{fill:url(#SVGID_2_);}
	.st2{fill:url(#SVGID_3_);}
	.st3{fill:url(#SVGID_4_);}
	.st4{clip-path:url(#SVGID_6_);}
	.st5{fill:#ED6524;}
	.st6{fill:#A7A9AC;}
	.st7{fill:#D1D3D4;}
	.st8{fill:#FFFFFF;}
	.st9{fill:url(#SVGID_9_);}
	.st10{fill:url(#SVGID_10_);}
	.st11{fill:url(#SVGID_11_);}
	.st12{fill:none;stroke:#ED6524;stroke-miterlimit:10;}
	.st13{fill:#FF7F30;}
	.st14{fill:#898A8D;}
	.st15{fill:#E6427A;}
	.st16{fill:#0CACA8;}
	.st17{fill:none;}
	.st18{fill:#231F20;}
	.st19{fill:#ED1C24;}
	.st20{fill-rule:evenodd;clip-rule:evenodd;fill:#00AEEF;}
	.st21{fill-rule:evenodd;clip-rule:evenodd;}
	.st22{fill-rule:evenodd;clip-rule:evenodd;fill:#FFF200;}
	.st23{fill-rule:evenodd;clip-rule:evenodd;fill:#EC008C;}
	.st24{fill-rule:evenodd;clip-rule:evenodd;fill:#231F20;}
	.st25{fill-rule:evenodd;clip-rule:evenodd;fill:#CE0E2D;}
	.st26{fill:#0057A8;}
	.st27{fill:#808285;}
	.st28{fill:url(#SVGID_12_);}
	.st29{fill:url(#SVGID_13_);}
	.st30{fill:url(#SVGID_14_);}
	.st31{fill:url(#SVGID_15_);}
	.st32{fill:#00AEEF;}
	.st33{fill:#FFF200;}
	.st34{fill:#EC008C;}
	.st35{fill:url(#SVGID_16_);}
	.st36{fill:url(#SVGID_17_);}
	.st37{fill:url(#SVGID_18_);}
	.st38{fill:url(#SVGID_19_);}
	.st39{fill-rule:evenodd;clip-rule:evenodd;fill:#176DB0;}
	.st40{fill-rule:evenodd;clip-rule:evenodd;fill:#C35557;}
	.st41{fill:#176DB0;}
	.st42{clip-path:url(#SVGID_21_);fill:#2170B4;}
	.st43{clip-path:url(#SVGID_21_);fill:none;stroke:#FFFFFF;stroke-width:0.3344;stroke-miterlimit:10;}
	.st44{clip-path:url(#SVGID_21_);fill:#FFFFFF;}
	.st45{clip-path:url(#SVGID_21_);fill:none;stroke:#FFFFFF;stroke-width:4.799914e-02;stroke-miterlimit:3.864;}
	.st46{fill:url(#SVGID_22_);}
	.st47{fill:url(#SVGID_23_);}
	.st48{fill-rule:evenodd;clip-rule:evenodd;fill:url(#SVGID_24_);}
	.st49{fill-rule:evenodd;clip-rule:evenodd;fill:#ED1C24;}
	.st50{clip-path:url(#SVGID_26_);fill:#F15629;}
	.st51{clip-path:url(#SVGID_26_);fill:#FFFFFF;}
	.st52{clip-path:url(#SVGID_28_);fill:url(#SVGID_29_);}
	.st53{fill:#6D6E71;}
	.st54{clip-path:url(#SVGID_31_);}
	.st55{clip-path:url(#SVGID_33_);fill:#E6E7E8;}
	.st56{fill:#CD036F;}
	.st57{fill:#014999;}
	.st58{fill-rule:evenodd;clip-rule:evenodd;fill:#DA2128;}
	.st59{fill:#0077B7;}
</style>
<g>
	<linearGradient id="SVGID_1_" gradientUnits="userSpaceOnUse" x1="9.3439" y1="11.6915" x2="15.5713" y2="11.6915">
		<stop  offset="0" style="stop-color:#E90303"/>
		<stop  offset="1" style="stop-color:#9B0A0A"/>
	</linearGradient>
	<path class="st0" d="M15.4,12l-5.5,3c-0.3,0.1-0.6,0-0.6-0.3V8.6c0-0.3,0.3-0.5,0.6-0.3l5.5,3C15.6,11.5,15.6,11.9,15.4,12z"/>
	<linearGradient id="SVGID_2_" gradientUnits="userSpaceOnUse" x1="0.7838" y1="11.6915" x2="23.3439" y2="11.6915">
		<stop  offset="0" style="stop-color:#E90303"/>
		<stop  offset="1" style="stop-color:#9B0A0A"/>
	</linearGradient>
	<path class="st1" d="M21.1,0.4H3c-1.2,0-2.2,1-2.2,2.2v18.2C0.8,22,1.8,23,3,23h18.2c1.2,0,2.2-1,2.2-2.2V2.6
		C23.3,1.4,22.4,0.4,21.1,0.4z M20.2,14.3c0,1.7-1.5,3.2-3.3,3.2H7.1c-1.8,0-3.3-1.4-3.3-3.2V9c0-1.7,1.5-3.1,3.3-3.1H17
		c1.8,0,3.3,1.4,3.3,3.1V14.3z"/>
	<g>
		<linearGradient id="SVGID_3_" gradientUnits="userSpaceOnUse" x1="9.3439" y1="11.6915" x2="15.5713" y2="11.6915">
			<stop  offset="0" style="stop-color:#E90303"/>
			<stop  offset="1" style="stop-color:#9B0A0A"/>
		</linearGradient>
		<path class="st2" d="M15.4,12l-5.5,3c-0.3,0.1-0.6,0-0.6-0.3V8.6c0-0.3,0.3-0.5,0.6-0.3l5.5,3C15.6,11.5,15.6,11.9,15.4,12z"/>
	</g>
</g>
</svg>
